<?xml version="1.0" encoding="utf-8"?>
<!-- Generator: Adobe Illustrator 19.1.0, SVG Export Plug-In . SVG Version: 6.00 Build 0)  -->
<svg version="1.1" id="Layer_1" xmlns="http://www.w3.org/2000/svg" xmlns:xlink="http://www.w3.org/1999/xlink" x="0px" y="0px"
	 viewBox="-501 427.5 167 47.5" style="enable-background:new -501 427.5 167 47.5;" xml:space="preserve">
<style type="text/css">
	.st0{fill:#5C5C5C;}
</style>
<path class="st0" d="M-472.9,472.7c-11.9,0-21.6-9.6-21.6-21.6c0-11.9,9.7-21.6,21.6-21.6s21.6,9.7,21.6,21.6
	C-451.3,463.1-461,472.7-472.9,472.7z M-472.9,430.5c-11.4,0-20.6,9.2-20.6,20.6s9.2,20.6,20.6,20.6s20.6-9.2,20.6-20.6
	C-452.3,439.8-461.6,430.5-472.9,430.5z M-454.6,457.3h-0.1l-0.1-0.1c0,0,0.7-2.2,0.7-4.6c0-2.6-1.1-4.3-2.5-4.3
	c-0.8,0-1.4,0.6-1.4,1.5c0,1.6,2,1.7,2,5.3c0,1.4-0.3,2.8-0.8,4.3c-2.2,7.5-9.3,11-16.2,11c-3.2,0-5.4-0.7-6.1-1v-0.1l0.1-0.1
	c0.3,0.1,2.2,0.7,4.6,0.7c2.6,0,4.2-1.1,4.2-2.4c0-0.8-0.7-1.5-1.5-1.5c-1.6,0-1.7,2-5.2,2c-1.5,0-2.8-0.3-4.4-0.8
	c-7.4-2.3-11-9.3-11-16.2c0-3.4,1-6.1,1-6.1h0.1l0.1,0.1c-0.1,0.3-0.7,2.2-0.7,4.6c0,2.6,1.1,4.2,2.5,4.2c0.8,0,1.4-0.6,1.4-1.4
	c0-1.6-2-1.8-2-5.3c0-1.5,0.3-2.8,0.8-4.4c2.3-7.4,9.3-10.9,16.2-11c3.2,0,6,0.9,6.1,1v0.1l-0.1,0.1c0,0-1.9-0.8-4.6-0.8
	c-2.6,0-4.2,1.1-4.2,2.5c0,0.8,0.6,1.4,1.5,1.4c1.6,0,1.7-2,5.2-2c1.5,0,2.8,0.3,4.4,0.8c7.5,2.3,10.9,9.3,11,16.2
	C-453.6,454.6-454.6,457.3-454.6,457.3z M-464.9,452.1c-2,0-3.6,1.5-3.6,3.3c0,1.5,0.9,2.7,2.1,2.7c0.4,0,0.8-0.2,0.8-0.8
	c0-0.8-1-1-1-2.1c0.1-0.8,0.8-1.3,1.5-1.3c1.4,0,2.1,1.4,2.1,2.8c-0.1,2.2-1.7,3.8-3.6,3.8c-2.5,0-4.1-2.4-4.1-5
	c0-3.8,2.5-5.3,3.8-5.7c0,0,3.4,0.6,3.3-0.9c0-0.7-1-0.9-1.8-0.9s-1.6,0.3-1.6,0.3c-0.4-0.2-0.7-0.6-0.9-1.1
	c2.5-1.9,4.2-3.7,4.2-5.7c0-1.1-0.7-2-2.1-2c-2.5,0-4.3,3.1-4.3,5.9c0,0.5,0,1,0.1,1.4c-1.6,1.1-2.7,1.8-4.8,3.1
	c0-0.3,0.1-0.9,0.2-1.8c0.7-0.8,1.7-1.9,1.7-2.8c0-0.4-0.2-0.8-0.7-0.8c-1.2,0-2.1,1.8-2.3,3.1c-0.5,0.7-1.6,1.5-2.5,1.5
	c-0.7,0-1-0.7-1-0.9c2.3-0.8,5.1-3.9,5.1-6.7c0-0.6-0.2-1.9-2-1.9c-2.7,0-5,4-5,7.1c-1,0-1.3-1-1.3-1.8s0.3-1.6,0.3-1.8
	c0-0.2-0.1-0.5-0.5-0.5c-0.9,0-1.4,1.2-1.4,2.6c0.1,1.9,1.3,3.1,3,3.2c0.2,1.1,1.3,2.2,2.5,2.2c0.8,0,1.7-0.2,2.4-0.8
	c-0.1,0.4-0.1,0.8-0.2,1.1c-2.6,1.4-4.6,2.3-6.3,3.9c-1.4,1.3-2.2,2.9-2.2,4.2c0,1.8,1.1,3.5,3.5,3.5c2.8,0,4.9-2.2,5.9-5.3
	c0.5-1.4,0.7-3.5,0.8-5.4c2.8-1.6,4.1-2.5,5.5-3.5c0.2,0.3,0.4,0.5,0.6,0.7c-1.3,0.7-4.3,2.5-4.3,6.9c0,3.1,2.1,6.6,6.2,6.6
	c3.4,0,5.7-2.8,5.7-5.5C-460.9,454.4-462.3,452.1-464.9,452.1z M-481.4,460.5c-0.9,0-1.5-0.5-1.5-1.5c0-2.6,3.6-5,6.3-6.4
	C-477.1,456.3-478.3,460.4-481.4,460.5z M-479.4,446.4c0-2,2-5.7,3.1-5.3C-474.9,441.5-477.4,445.3-479.4,446.4z M-468.1,445.5
	c0-2.5,1.7-4.8,2.6-4.4C-464.5,441.6-466.3,443.9-468.1,445.5z"/>
<g>
	<path class="st0" d="M-428.2,455.6c0,1.1-0.6,1.8-1.6,2.3c-1.2,0.6-2.9,0.8-4.1,0.8c-4.5,0-7.4-3.2-7.4-8.4c0-5.8,3.8-8.6,7.6-8.6
		c2,0,3.7,0.6,4.6,1.3c0.4,0.3,0.6,0.6,0.6,0.9c0,0.5-0.5,1.2-1,1.2c-0.3,0-0.5-0.1-1.1-0.4c-0.8-0.4-1.8-0.8-3.1-0.8
		c-2.9,0-5.4,2.1-5.4,6.4c0,3.9,2,6.3,5.4,6.3c0.8,0,2-0.1,2.6-0.5c0.3-0.2,0.5-0.5,0.5-0.8v-3.6h-3.1c-0.8,0-1-0.4-1-1.1s0.3-1,1-1
		h4.2c0.7,0,1.1,0.4,1.1,1v5H-428.2z"/>
	<path class="st0" d="M-416.2,458.5h-6.3c-1.2,0-2-0.7-2-1.9v-12.5c0-1.2,0.6-2.1,2.1-2.1h6.2c0.9,0,1.2,0.3,1.2,1s-0.3,1.1-1.2,1.1
		h-5.6c-0.2,0-0.4,0.2-0.4,0.5v4.2h5.3c0.9,0,1.2,0.4,1.2,1.1c0,0.8-0.3,1.1-1.2,1.1h-5.3v5c0,0.2,0.1,0.4,0.3,0.4h5.7
		c0.9,0,1.2,0.3,1.2,1C-415,458.2-415.3,458.5-416.2,458.5z"/>
	<path class="st0" d="M-401.1,458.5h-3.3c-1.2,0-2-0.7-2-1.9V444c0-1.2,0.7-2,2-2h3.2c5,0,7.6,3.3,7.6,7.9
		C-393.4,454.9-396.1,458.5-401.1,458.5z M-400.9,444.1h-2.7c-0.2,0-0.4,0.2-0.4,0.4v11.4c0,0.2,0.1,0.4,0.3,0.4h2.6
		c3.7,0,5.5-2.7,5.5-6.4C-395.7,446.6-397.3,444.2-400.9,444.1z"/>
	<path class="st0" d="M-389.5,443.7c-0.7,0-1.3-0.6-1.3-1.3c0-0.7,0.6-1.3,1.3-1.3c0.7,0,1.3,0.6,1.3,1.3S-388.8,443.7-389.5,443.7z
		 M-389.5,458.6c-0.7,0-1.1-0.3-1.1-1v-10.7c0-0.7,0.4-0.9,1.1-0.9s1.1,0.2,1.1,0.9v10.8C-388.4,458.4-388.8,458.6-389.5,458.6z"/>
	<path class="st0" d="M-375,457.4c0,3.9-1.9,6.2-5.7,6.2c-1.6,0-2.8-0.5-3.5-0.9c-0.5-0.4-0.7-0.7-0.7-1c0-0.6,0.5-1.1,0.9-1.1
		c0.2,0,0.5,0.1,0.9,0.3c0.7,0.4,1.4,0.7,2.4,0.7c2.9,0,3.4-1.9,3.4-4.3v-0.4c-0.6,1.1-1.7,1.9-3.5,1.9c-3,0-5-2.4-5-6.4
		c0-3.9,2-6.4,5.2-6.4c1.7,0,2.7,0.8,3.2,1.7V447c0-0.7,0.4-1,1.1-1c0.7,0,1.1,0.3,1.1,1v10.4H-375z M-377.2,451.2
		c0-1.8-1.1-3.3-3-3.3c-2.1,0-3.2,1.8-3.2,4.4c0,2.7,1.2,4.4,3.2,4.4s3-1.6,3-3.3V451.2z"/>
	<path class="st0" d="M-370.4,443.7c-0.7,0-1.3-0.6-1.3-1.3c0-0.7,0.6-1.3,1.3-1.3c0.7,0,1.3,0.6,1.3,1.3S-369.7,443.7-370.4,443.7z
		 M-370.5,458.6c-0.7,0-1.1-0.3-1.1-1v-10.7c0-0.7,0.4-0.9,1.1-0.9c0.7,0,1.1,0.2,1.1,0.9v10.8
		C-369.3,458.4-369.8,458.6-370.5,458.6z"/>
	<path class="st0" d="M-360.8,448h-2.2v7c0,0.8,0.2,1.6,1.2,1.6c0.5,0,0.8-0.2,1.2-0.3c0.1,0,0.2,0,0.3,0c0.5,0,0.8,0.6,0.8,1.1
		c0,0.4-0.3,0.8-0.8,1s-1.2,0.4-1.8,0.4c-2.1,0-3.2-1.1-3.2-3.6v-7.1h-0.7c-1,0-1.4-0.1-1.4-1c0-0.7,0.2-0.9,1-0.9h1v-2.6
		c0-0.7,0.4-1,1.1-1c0.8,0,1.1,0.2,1.1,1v2.6h2.2c0.7,0,0.9,0.3,0.9,0.9C-359.9,447.8-360.2,448-360.8,448z"/>
	<path class="st0" d="M-348.7,458.6c-0.7,0-1.1-0.2-1.1-0.9v-0.9c-0.5,1-1.6,1.9-3.5,1.9c-3.2,0-5-2.6-5-6.4c0-3.6,1.8-6.4,5.2-6.4
		c1.7,0,2.7,0.8,3.3,1.7v-0.7c0-0.7,0.4-1,1.1-1s1.1,0.2,1.1,1v10.8C-347.6,458.4-348,458.6-348.7,458.6z M-349.8,451.2
		c0-1.8-1.1-3.3-3-3.3c-2.3,0-3.2,2.1-3.2,4.4c0,2.5,1,4.4,3.2,4.4c2,0,3-1.6,3-3.3V451.2z"/>
	<path class="st0" d="M-341.9,457.7c0,0.7-0.4,1-1.1,1s-1.1-0.3-1.1-1v-16.4c0-0.7,0.4-0.9,1.1-0.9c0.7,0,1.1,0.2,1.1,0.9V457.7z"/>
</g>
</svg>
